HIERARCHY
ROOT hip
{
  OFFSET 0 0 0
  CHANNELS 6 Xposition Yposition Zposition Zrotation Yrotation Xrotation
  JOINT abdomen
  {
    OFFSET 0 20.6881 -0.73152
    CHANNELS 3 Zrotation Xrotation Yrotation
    JOINT chest
    {
      OFFSET 0 11.7043 -0.48768
      CHANNELS 3 Zrotation Xrotation Yrotation
      JOINT neck
      {
        OFFSET 0 22.1894 -2.19456
        CHANNELS 3 Zrotation Xrotation Yrotation
        JOINT head
        {
          OFFSET -0.24384 7.07133 1.2192
          CHANNELS 3 Zrotation Xrotation Yrotation
          JOINT leftEye
          {
            OFFSET 4.14528 8.04674 8.04672
            CHANNELS 3 Zrotation Xrotation Yrotation
            End Site
            {
              OFFSET 1 0 0
            }
          }
          JOINT rightEye
          {
            OFFSET -3.6576 8.04674 8.04672
            CHANNELS 3 Zrotation Xrotation Yrotation
            End Site
            {
              OFFSET 1 0 0
            }
          }
        }
      }
      JOINT rCollar
      {
        OFFSET -2.68224 19.2634 -4.8768
        CHANNELS 3 Zrotation Xrotation Yrotation
        JOINT rShldr
        {
          OFFSET -8.77824 -1.95073 1.46304
          CHANNELS 3 Zrotation Xrotation Yrotation
          JOINT rForeArm
          {
            OFFSET -28.1742 -1.7115 0.48768
            CHANNELS 3 Zrotation Xrotation Yrotation
            JOINT rHand
            {
              OFFSET -22.5879 0.773209 7.07136
              CHANNELS 3 Zrotation Xrotation Yrotation
              JOINT rThumb1
              {
                OFFSET -1.2192 -0.487915 3.41376
                CHANNELS 3 Zrotation Xrotation Yrotation
                JOINT rThumb2
                {
                  OFFSET -3.37035 -0.52449 3.41376
                  CHANNELS 3 Zrotation Xrotation Yrotation
                  End Site
                  {
                    OFFSET -1.78271 -1.18214 1.43049
                  }
                }
              }
              JOINT rIndex1
              {
                OFFSET -7.75947 0.938293 5.60832
                CHANNELS 3 Zrotation Xrotation Yrotation
                JOINT rIndex2
                {
                  OFFSET -2.54057 -0.884171 1.56538
                  CHANNELS 3 Zrotation Xrotation Yrotation
                  End Site
                  {
                    OFFSET -1.62519 -0.234802 1.16502
                  }
                }
              }
              JOINT rMid1
              {
                OFFSET -8.24714 1.18213 3.41376
                CHANNELS 3 Zrotation Xrotation Yrotation
                JOINT rMid2
                {
                  OFFSET -3.10165 -0.590103 1.0647
                  CHANNELS 3 Zrotation Xrotation Yrotation
                  End Site
                  {
                    OFFSET -2.48547 -0.328903 0.83742
                  }
                }
              }
              JOINT rRing1
              {
                OFFSET -8.82822 0.546677 1.51678
                CHANNELS 3 Zrotation Xrotation Yrotation
                JOINT rRing2
                {
                  OFFSET -2.60934 -0.819778 -0.0198488
                  CHANNELS 3 Zrotation Xrotation Yrotation
                  End Site
                  {
                    OFFSET -2.33842 -0.294052 0.168128
                  }
                }
              }
              JOINT rPinky1
              {
                OFFSET -8.27202 -0.0477905 -0.4584
                CHANNELS 3 Zrotation Xrotation Yrotation
                JOINT rPinky2
                {
                  OFFSET -1.82734 -0.647385 -0.700984
                  CHANNELS 3 Zrotation Xrotation Yrotation
                  End Site
                  {
                    OFFSET -1.69225 -0.51767 -0.607171
                  }
                }
              }
            }
          }
        }
      }
      JOINT lCollar
      {
        OFFSET 2.68224 19.2634 -4.8768
        CHANNELS 3 Zrotation Xrotation Yrotation
        JOINT lShldr
        {
          OFFSET 8.77824 -1.95073 1.46304
          CHANNELS 3 Zrotation Xrotation Yrotation
          JOINT lForeArm
          {
            OFFSET 28.1742 -1.7115 0.48768
            CHANNELS 3 Zrotation Xrotation Yrotation
            JOINT lHand
            {
              OFFSET 22.5879 0.773209 7.07136
              CHANNELS 3 Zrotation Xrotation Yrotation
              JOINT lThumb1
              {
                OFFSET 1.2192 -0.487915 3.41376
                CHANNELS 3 Zrotation Xrotation Yrotation
                JOINT lThumb2
                {
                  OFFSET 3.37035 -0.52449 3.41376
                  CHANNELS 3 Zrotation Xrotation Yrotation
                  End Site
                  {
                    OFFSET 1.78271 -1.18214 1.43049
                  }
                }
              }
              JOINT lIndex1
              {
                OFFSET 7.75947 0.938293 5.60832
                CHANNELS 3 Zrotation Xrotation Yrotation
                JOINT lIndex2
                {
                  OFFSET 2.54057 -0.884171 1.56538
                  CHANNELS 3 Zrotation Xrotation Yrotation
                  End Site
                  {
                    OFFSET 1.62519 -0.234802 1.16502
                  }
                }
              }
              JOINT lMid1
              {
                OFFSET 8.24714 1.18213 3.41376
                CHANNELS 3 Zrotation Xrotation Yrotation
                JOINT lMid2
                {
                  OFFSET 3.10165 -0.590103 1.0647
                  CHANNELS 3 Zrotation Xrotation Yrotation
                  End Site
                  {
                    OFFSET 2.48547 -0.328903 0.83742
                  }
                }
              }
              JOINT lRing1
              {
                OFFSET 8.82822 0.546677 1.51678
                CHANNELS 3 Zrotation Xrotation Yrotation
                JOINT lRing2
                {
                  OFFSET 2.60934 -0.819778 -0.0198488
                  CHANNELS 3 Zrotation Xrotation Yrotation
                  End Site
                  {
                    OFFSET 2.33842 -0.294052 0.168128
                  }
                }
              }
              JOINT lPinky1
              {
                OFFSET 8.27202 -0.0477905 -0.4584
                CHANNELS 3 Zrotation Xrotation Yrotation
                JOINT lPinky2
                {
                  OFFSET 1.82734 -0.647385 -0.700984
                  CHANNELS 3 Zrotation Xrotation Yrotation
                  End Site
                  {
                    OFFSET 1.69225 -0.51767 -0.607171
                  }
                }
              }
            }
          }
        }
      }
    }
  }
  JOINT rButtock
  {
    OFFSET -8.77824 4.35084 1.2192
    CHANNELS 3 Zrotation Xrotation Yrotation
    JOINT rThigh
    {
      OFFSET 0 -1.70687 -2.19456
      CHANNELS 3 Zrotation Xrotation Yrotation
      JOINT rShin
      {
        OFFSET 0 -36.8199 0.73152
        CHANNELS 3 Zrotation Xrotation Yrotation
        JOINT rFoot
        {
          OFFSET 0.73152 -45.1104 -5.12064
          CHANNELS 3 Zrotation Xrotation Yrotation
          End Site
          {
            OFFSET -1.1221 -3.69964 12.103
          }
        }
      }
    }
  }
  JOINT lButtock
  {
    OFFSET 8.77824 4.35084 1.2192
    CHANNELS 3 Zrotation Xrotation Yrotation
    JOINT lThigh
    {
      OFFSET 0 -1.70687 -2.19456
      CHANNELS 3 Zrotation Xrotation Yrotation
      JOINT lShin
      {
        OFFSET 0 -36.8199 0.73152
        CHANNELS 3 Zrotation Xrotation Yrotation
        JOINT lFoot
        {
          OFFSET -0.73152 -45.1104 -5.12064
          CHANNELS 3 Zrotation Xrotation Yrotation
          End Site
          {
            OFFSET 1.1221 -3.69964 12.103
          }
        }
      }
    }
  }
}
MOTION
Frames:	4
Frame Time:	0.03333
-0.29861413295018524 30.773048475277267 47.89079162681335 11.215898513793945 25.101598739624023 11.250900268554688 -18.82149887084961 8.172869682312012 4.893259525299072 4.50583028793335 -9.607449531555176 1.5627399682998657 -8.611069679260254 16.04640007019043 -12.499100685119629 10.085599899291992 -27.78639793395996 -22.25609588623047 -0.0 0.0 -0.0 -0.0 0.0 -0.0 -8.905552619127566e-14 2.289999244918517e-13 -2.5444436054650188e-14 33.68320083618164 -21.201398849487305 59.789398193359375 -8.912069320678711 -3.506010055541992 15.77649974822998 -1.083339810371399 28.16939926147461 4.316169261932373 -2.1799648752818257e-09 -1.3250101460471342e-08 -7.56005091862022e-10 -3.7832315058494714e-09 -2.2705393121214e-08 -1.257451254232933e-09 -2.1799648752818257e-09 -1.3250101460471342e-08 -7.56017803915654e-10 7.7309088706970215 5.474880218505859 0.41731396317481995 -2.1799648752818257e-09 -1.3250101460471342e-08 -7.560114201332624e-10 2.9055399894714355 0.9651829600334167 0.10290198773145676 -2.1799648752818257e-09 -1.3250101460471342e-08 -7.560114201332624e-10 10.27859878540039 0.73180091381073 0.025912299752235413 -2.1799648752818257e-09 -1.3250101460471342e-08 -7.559987080796304e-10 2.2216696739196777 -0.7334870100021362 -0.2089199721813202 -8.905552619127566e-14 2.289999244918517e-13 -2.5444436054650188e-14 -111.32499694824219 47.85259246826172 51.33829879760742 27.93609619140625 -40.73869705200195 -85.25589752197266 9.381600379943848 -62.23299789428711 15.48180103302002 -1.4787034097185625e-10 -5.973717631668762e-10 1.781174097104099e-10 -2.6205224101794045e-10 -1.0290238661170292e-09 2.9694929848389506e-10 -1.4787034097185625e-10 -5.973717631668762e-10 1.7813649166864565e-10 -7.7309088706970215 5.474880218505859 -0.41731396317481995 -1.4787034097185625e-10 -5.973717631668762e-10 1.781174097104099e-10 -2.9055399894714355 0.9651829600334167 -0.10290198773145676 -1.4787034097185625e-10 -5.973717631668762e-10 1.781174097104099e-10 -10.27859878540039 0.73180091381073 -0.025912299752235413 -1.4785761504043649e-10 -5.973717631668762e-10 1.7811105368359392e-10 -2.2216696739196777 -0.7334870100021362 0.2089199721813202 -0.0 0.0 -0.0 -67.57319641113281 -60.18699645996094 -59.02549362182617 -1.623210072517395 66.71449279785156 2.121149778366089 0.23043207824230194 4.212459564208984 9.53179931640625 -0.0 0.0 -0.0 8.227139472961426 13.959000587463379 -0.693386971950531 -0.17935794591903687 25.444198608398438 -2.3882699012756348 7.529117584228516 -14.187601089477539 35.21079635620117
-0.2709173523449732 30.722511905608343 48.06726262408938 11.342698097229004 24.913097381591797 11.499499320983887 -18.94260025024414 8.072790145874023 5.056399822235107 4.468389987945557 -9.619500160217285 1.6054298877716064 -8.47892951965332 16.11479949951172 -12.586699485778809 9.922127723693848 -27.763702392578125 -22.474998474121094 -0.0 0.0 -0.0 -0.0 0.0 -0.0 -3.1805545068312735e-13 5.343331571476539e-13 -5.279720345814642e-13 33.786502838134766 -21.51409912109375 59.93779754638672 -8.857401847839355 -3.4753499031066895 15.675498008728027 -1.1076600551605225 28.450599670410156 4.367330074310303 -1.887684453194538e-09 -9.55044154871132e-10 1.2699826745787846e-09 -3.2380462755554618e-09 -1.3471938009601558e-09 2.2324311288457466e-09 -1.887684453194538e-09 -9.55044154871132e-10 1.2699700180363038e-09 7.7309088706970215 5.474880218505859 0.41731396317481995 -1.887684453194538e-09 -9.55044154871132e-10 1.2699826745787846e-09 2.9055399894714355 0.9651829600334167 0.10290198773145676 -1.8876717966520573e-09 -9.55044154871132e-10 1.2699826745787846e-09 10.27859878540039 0.73180091381073 0.025912299752235413 -1.887684453194538e-09 -9.55044154871132e-10 1.269989002850025e-09 2.2216696739196777 -0.7334870100021362 -0.2089199721813202 -3.1805545068312735e-13 5.343331571476539e-13 -5.279720345814642e-13 -111.27999877929688 47.6156005859375 51.278602600097656 27.936199188232422 -40.73849868774414 -85.2553939819336 9.448960304260254 -62.34589385986328 15.557901382446289 1.9005339524369447e-09 2.6782049911133754e-09 -2.96624863560524e-10 3.2835407726139465e-09 4.41822267660541e-09 -4.199031677920573e-10 1.9005339524369447e-09 2.6782305262429418e-09 -2.96618507533708e-10 -7.7309088706970215 5.474880218505859 -0.41731396317481995 1.9005466089794254e-09 2.678217647655856e-09 -2.9663124734291557e-10 -2.9055399894714355 0.9651829600334167 -0.10290198773145676 1.9005339524369447e-09 2.6782049911133754e-09 -2.96624863560524e-10 -10.27859878540039 0.73180091381073 -0.025912299752235413 1.9005466089794254e-09 2.678217647655856e-09 -2.9663760336973155e-10 -2.2216696739196777 -0.7334870100021362 0.2089199721813202 -0.0 0.0 -0.0 -68.52369689941406 -60.263492584228516 -60.07499313354492 -1.6826196908950806 67.24130249023438 2.177649974822998 0.260936975479126 3.883579969406128 9.76547908782959 -0.0 0.0 -0.0 7.986958980560303 14.676798820495605 -0.7480979561805725 -0.19275401532649994 24.305498123168945 -2.366389513015747 7.235309600830078 -13.844799041748047 35.17210006713867
-0.24081415068684156 30.655647768728503 48.23685812883129 11.515301704406738 24.742799758911133 11.743799209594727 -19.208799362182617 7.951369285583496 5.192080020904541 4.511040210723877 -9.60530948638916 1.6445099115371704 -8.438560485839844 16.199203491210938 -12.653399467468262 9.962138175964355 -27.7820987701416 -22.604097366333008 -0.0 0.0 -0.0 -0.0 0.0 -0.0 -1.1449996224592585e-13 1.1449996224592585e-13 -4.579998489837034e-13 33.675193786621094 -21.716901779174805 59.96909713745117 -8.853630065917969 -3.4731998443603516 15.668601989746094 -1.1200703382492065 28.592798233032227 4.3933000564575195 3.5017905242185066e-10 1.2543903693540415e-08 2.0620425367212647e-09 6.429554666453896e-10 2.1765094615489033e-08 3.550077787295436e-09 3.5017905242185066e-10 1.2543903693540415e-08 2.062029880178784e-09 7.7309088706970215 5.474880218505859 0.41731396317481995 3.5017905242185066e-10 1.2543903693540415e-08 2.0620425367212647e-09 2.9055399894714355 0.9651829600334167 0.10290198773145676 3.5017905242185066e-10 1.2543903693540415e-08 2.0620425367212647e-09 10.27859878540039 0.73180091381073 0.025912299752235413 3.5017905242185066e-10 1.2543903693540415e-08 2.0620489760148075e-09 2.2216696739196777 -0.7334870100021362 -0.2089199721813202 -1.1449996224592585e-13 1.1449996224592585e-13 -4.579998489837034e-13 -111.27498626708984 47.444496154785156 51.265296936035156 27.932294845581055 -40.757301330566406 -85.289794921875 9.547300338745117 -62.50879669189453 15.668898582458496 2.8650817274211704e-09 3.772684831204742e-09 -3.6442793227564607e-10 4.94202190282067e-09 6.212793390858451e-09 -4.861350211271542e-10 2.8650817274211704e-09 3.772684831204742e-09 -3.6440886419519813e-10 -7.7309088706970215 5.474880218505859 -0.41731396317481995 2.8650817274211704e-09 3.772684831204742e-09 -3.6443428830246205e-10 -2.9055399894714355 0.9651829600334167 -0.10290198773145676 2.8650817274211704e-09 3.772684831204742e-09 -3.6442793227564607e-10 -10.27859878540039 0.73180091381073 -0.025912299752235413 2.865094383963651e-09 3.772684831204742e-09 -3.6444064432927803e-10 -2.2216696739196777 -0.7334870100021362 0.2089199721813202 -0.0 0.0 -0.0 -69.5811996459961 -60.3285026550293 -61.1387939453125 -1.7523397207260132 67.8291015625 2.244500160217285 0.30130401253700256 3.538179636001587 9.9910888671875 -0.0 0.0 -0.0 7.742379188537598 15.401399612426758 -0.7903619408607483 -0.20625199377536774 23.19409942626953 -2.3483197689056396 6.903269290924072 -13.486200332641602 35.07370376586914
-0.21073959713660562 30.573945045876812 48.39785926790555 11.742300033569336 24.593700408935547 11.9927978515625 -19.502199172973633 7.814619541168213 5.298249244689941 4.574709892272949 -9.580169677734375 1.6772698163986206 -8.42354965209961 16.296701431274414 -12.710099220275879 10.047499656677246 -27.818498611450195 -22.702796936035156 -0.0 0.0 -0.0 -0.0 0.0 -0.0 1.0177774421860075e-13 -2.544443605465019e-13 -1.908332704098764e-13 33.528202056884766 -21.863698959350586 59.96909713745117 -8.870779037475586 -3.482799768447876 15.700297355651855 -1.1267099380493164 28.668699264526367 4.407179832458496 1.8295185366667965e-09 1.7872094915105663e-08 1.9126518147061233e-09 3.196253706150287e-09 3.078919164067884e-08 3.2603229005445655e-09 1.8295185366667965e-09 1.7872094915105663e-08 1.9126391581636426e-09 7.7309088706970215 5.474880218505859 0.41731396317481995 1.8295185366667965e-09 1.7872094915105663e-08 1.9126518147061233e-09 2.9055399894714355 0.9651829600334167 0.10290198773145676 1.8295185366667965e-09 1.7872094915105663e-08 1.9126518147061233e-09 10.27859878540039 0.73180091381073 0.025912299752235413 1.8295058801243158e-09 1.7872094915105663e-08 1.912658253999666e-09 2.2216696739196777 -0.7334870100021362 -0.2089199721813202 1.0177774421860075e-13 -2.544443605465019e-13 -1.9719437942353896e-13 -111.27399444580078 47.34950256347656 51.241294860839844 27.931299209594727 -40.761898040771484 -85.298095703125 9.631468772888184 -62.64649963378906 15.76369857788086 2.571274748675023e-09 3.1422351387533354e-09 -2.45990450231659e-10 4.42924008581258e-09 5.157841709291233e-09 -2.94169494319263e-10 2.571274748675023e-09 3.1422224822108547e-09 -2.4596499836881947e-10 -7.7309088706970215 5.474880218505859 -0.41731396317481995 2.571287405217504e-09 3.1422351387533354e-09 -2.45984094204843e-10 -2.9055399894714355 0.9651829600334167 -0.10290198773145676 2.571274748675023e-09 3.1422351387533354e-09 -2.45984094204843e-10 -10.27859878540039 0.73180091381073 -0.025912299752235413 2.571287405217504e-09 3.1422351387533354e-09 -2.45996806258475e-10 -2.2216696739196777 -0.7334870100021362 0.2089199721813202 -0.0 0.0 -0.0 -70.6305923461914 -60.396305084228516 -62.15159606933594 -1.8287497758865356 68.43999481201172 2.318429946899414 0.3473530113697052 3.1884398460388184 10.168198585510254 -0.0 0.0 -0.0 7.533010959625244 16.084199905395508 -0.8198910355567932 -0.21811993420124054 22.169401168823242 -2.334629774093628 6.578750133514404 -13.150999069213867 34.95450210571289
